<svg width="502" height="150" viewBox="0 0 502 150" fill="none" xmlns="http://www.w3.org/2000/svg">
<path d="M124.56 11.84C123.707 10.4533 122.213 9.75999 120.08 9.75999C117.947 9.75999 115.92 10.0267 114 10.56C112.187 11.0933 110 11.84 107.44 12.8C103.28 14.5067 99.92 16.1067 97.36 17.6C87.76 22.72 78.8 28.7467 70.48 35.68C62.16 42.5067 57.7867 47.6267 57.36 51.04C57.1467 53.7067 58.5867 55.8933 61.68 57.6C64.3467 59.2 67.44 60.7467 70.96 62.24C74.48 63.6267 77.04 64.6933 78.64 65.44C87.1733 69.7067 91.44 75.36 91.44 82.4C91.44 85.4933 90.5333 88.48 88.72 91.36C85.84 95.84 81.4667 99.5733 75.6 102.56C69.84 105.44 63.6533 107.467 57.04 108.64C50.2133 109.813 44.56 110.4 40.08 110.4C31.9733 110.4 23.8667 108.64 15.76 105.12C7.65333 101.707 2.64 96.32 0.72 88.96C4.66667 92.48 10.1067 94.9867 17.04 96.48C23.9733 97.9733 30.5867 98.72 36.88 98.72C46.2667 98.6133 53.2 97.8667 57.68 96.48C62.2667 95.0933 66.2133 93.4933 69.52 91.68C72.9333 89.76 76.0267 87.5733 78.8 85.12C81.68 82.56 83.12 79.7867 83.12 76.8C83.12 73.7067 81.0933 70.9333 77.04 68.48C76.72 68.2667 73.4667 66.9333 67.28 64.48C61.2 62.0267 56.5067 59.3067 53.2 56.32C50 53.3333 48.4 49.92 48.4 46.08C48.4 38.8267 52.88 31.4667 61.84 24C70.8 16.4267 80.56 10.56 91.12 6.4C101.787 2.23999 110.853 0.159992 118.32 0.159992C123.547 0.159992 127.6 1.11999 130.48 3.03999C133.36 4.85333 134.8 7.41333 134.8 10.72C134.8 11.1467 134.8 11.6267 134.8 12.16C134.48 15.4667 128.667 22.3467 117.36 32.8C113.2 36.64 109.52 40.96 106.32 45.76C103.227 50.4533 101.68 54.6133 101.68 58.24C101.68 58.56 101.68 58.88 101.68 59.2C98.3733 56.64 96.72 53.2267 96.72 48.96C96.72 45.12 98.3733 40.4267 101.68 34.88C106.48 26.7733 114.107 19.0933 124.56 11.84ZM140.535 64.96C140.535 63.5733 139.522 62.88 137.495 62.88C133.868 62.88 129.442 65.44 124.215 70.56C122.935 71.84 120.588 74.5067 117.175 78.56C113.868 82.6133 110.615 87.2533 107.415 92.48L103.415 101.28L103.895 99.68C103.682 100.107 103.468 100.747 103.255 101.6C102.722 102.88 101.175 103.947 98.615 104.8C98.0817 105.013 97.6017 105.12 97.175 105.12C96.1083 105.12 96.0017 104.32 96.855 102.72C97.2817 101.653 98.775 97.8667 101.335 91.36C103.895 84.7467 105.975 79.4667 107.575 75.52C103.415 80.1067 99.5217 83.84 95.895 86.72C94.8283 87.5733 94.0817 87.68 93.655 87.04C93.5483 86.9333 93.495 86.72 93.495 86.4C93.495 86.08 93.975 85.4933 94.935 84.64C101.442 78.9867 106.562 73.76 110.295 68.96C113.068 62.4533 118.135 53.44 125.495 41.92C132.962 30.2933 140.588 20.6933 148.375 13.12C153.602 7.89333 159.255 4.37333 165.335 2.56C168.108 1.70666 170.668 1.28 173.015 1.28C175.468 1.28 177.708 1.97333 179.735 3.36C181.868 4.63999 182.935 7.09333 182.935 10.72C182.935 15.52 181.335 20.3733 178.135 25.28C174.935 30.1867 169.282 35.68 161.175 41.76C153.068 47.7333 145.548 52.2133 138.615 55.2C137.335 55.7333 136.588 55.68 136.375 55.04C136.162 54.2933 136.695 53.6533 137.975 53.12C144.162 50.3467 151.095 45.9733 158.775 40C166.562 34.0267 171.735 28.96 174.295 24.8C176.962 20.5333 178.295 17.12 178.295 14.56C178.295 11.8933 177.175 10.56 174.935 10.56C172.375 10.56 168.322 12.6933 162.775 16.96C154.562 23.5733 145.922 32.8 136.855 44.64C127.895 56.48 120.162 68.4267 113.655 80.48C116.642 76.2133 119.362 72.6933 121.815 69.92C127.788 63.2 133.602 59.84 139.255 59.84C144.588 59.84 147.735 62.1867 148.695 66.88C148.802 67.52 148.855 68.4267 148.855 69.6C148.855 70.7733 148.428 72.5333 147.575 74.88C146.828 77.12 144.588 81.3333 140.855 87.52C137.228 93.6 135.415 97.28 135.415 98.56C135.415 99.84 135.842 100.48 136.695 100.48C137.868 100.48 139.628 99.7333 141.975 98.24C147.948 94.5067 155.735 88.2133 165.335 79.36C166.615 78.08 167.202 77.8667 167.095 78.72C167.095 79.5733 166.775 80.3733 166.135 81.12C158.242 89.2267 150.082 96 141.655 101.44C137.708 104 134.135 105.28 130.935 105.28C130.082 105.28 129.282 105.173 128.535 104.96C124.375 104.107 122.295 101.813 122.295 98.08C122.295 94.24 123.788 89.9733 126.775 85.28C127.308 84.5333 129.282 82.0267 132.695 77.76C137.922 71.36 140.535 67.0933 140.535 64.96ZM188.914 101.28C181.767 104.907 175.527 106.72 170.194 106.72C165.714 106.72 162.674 105.227 161.074 102.24C160.22 100.747 159.794 99.04 159.794 97.12C159.794 92.7467 160.807 88.48 162.834 84.32C161.447 85.7067 160.114 86.8267 158.834 87.68C157.767 88.64 157.234 88.5333 157.234 87.36C157.234 86.6133 158.194 85.44 160.114 83.84C161.927 82.24 164.754 79.5733 168.594 75.84C172.434 72 175.474 69.12 177.714 67.2C184.22 61.76 191.1 59.04 198.354 59.04C201.02 59.04 203.74 59.7333 206.514 61.12C210.567 63.04 212.594 66.56 212.594 71.68C212.594 77.8667 209.5 84.2133 203.314 90.72C200.86 93.4933 197.447 96.2667 193.074 99.04C201.82 97.6533 211.1 92.3733 220.914 83.2C221.447 82.7733 221.927 82.6133 222.354 82.72C222.78 82.72 222.994 82.9333 222.994 83.36C222.994 83.7867 222.78 84.2133 222.354 84.64C210.62 95.7333 199.687 101.28 189.554 101.28C189.34 101.28 189.127 101.28 188.914 101.28ZM204.434 84.48C207.1 80.4267 208.434 77.0133 208.434 74.24C208.434 71.36 207.207 69.1733 204.754 67.68C203.367 66.5067 201.767 65.92 199.954 65.92C193.447 65.92 187.42 68.48 181.874 73.6C176.434 78.72 172.807 84.16 170.994 89.92C170.247 91.9467 169.874 94.08 169.874 96.32C169.874 98.4533 170.674 100 172.274 100.96C173.98 101.813 175.847 102.24 177.874 102.24C179.9 102.24 182.834 101.227 186.674 99.2C186.46 99.2 186.14 99.0933 185.714 98.88C184.434 98.24 183.794 97.3867 183.794 96.32C183.794 92.5867 185.874 88.8 190.034 84.96C193.02 82.2933 196.06 80.96 199.154 80.96C202.247 80.96 204.007 82.1333 204.434 84.48ZM281.241 67.04C281.241 74.5067 277.615 82.4 270.361 90.72C264.921 97.12 259.055 101.76 252.761 104.64C249.241 106.347 246.308 107.2 243.961 107.2C241.615 107.2 239.695 106.667 238.201 105.6C235.641 103.893 234.361 101.387 234.361 98.08C234.361 94.7733 235.268 90.9867 237.081 86.72C213.508 120.427 201.721 140.587 201.721 147.2C201.721 147.84 201.881 148.373 202.201 148.8C202.415 149.333 202.308 149.653 201.881 149.76L201.401 149.6C197.988 146.613 196.281 143.093 196.281 139.04C196.281 129.76 205.775 110.827 224.761 82.24C219.641 87.36 217.081 89.1733 217.081 87.68C217.081 86.8267 217.668 85.8667 218.841 84.8C224.068 80.32 229.721 74.1867 235.801 66.4C241.881 58.6133 245.775 53.8667 247.481 52.16C249.295 50.3467 251.481 49.44 254.041 49.44C256.601 49.44 259.161 50.7733 261.721 53.44C259.588 56 255.588 61.28 249.721 69.28C254.841 64.48 260.015 61.12 265.241 59.2C267.801 58.24 270.095 57.76 272.121 57.76C274.148 57.76 276.175 58.4533 278.201 59.84C280.228 61.12 281.241 63.52 281.241 67.04ZM236.761 96.8C236.761 101.6 238.628 104 242.361 104C244.495 104 247.695 102.933 251.961 100.8C256.335 98.6667 260.548 95.2 264.601 90.4C268.761 85.4933 271.695 81.12 273.401 77.28C275.108 73.3333 275.961 70.1333 275.961 67.68C275.961 63.3067 274.255 61.12 270.841 61.12C268.601 61.12 265.135 62.24 260.441 64.48C255.748 66.72 251.375 70.24 247.321 75.04C240.281 83.1467 236.761 90.4 236.761 96.8ZM326.529 66.08C326.529 64.0533 325.462 63.04 323.329 63.04C321.515 63.04 318.689 63.8933 314.849 65.6C311.115 67.2 306.902 70.72 302.209 76.16C296.555 82.88 293.729 88.8533 293.729 94.08C293.729 98.0267 295.222 100.693 298.209 102.08C299.169 102.507 300.289 102.72 301.569 102.72C305.942 102.72 311.062 100.853 316.929 97.12C322.902 93.3867 330.582 87.2 339.969 78.56C341.462 77.0667 342.209 77.0667 342.209 78.56C342.209 79.2 341.889 79.7867 341.249 80.32C328.235 92.2667 318.635 99.68 312.449 102.56C306.369 105.333 301.569 106.72 298.049 106.72C285.675 106.72 279.489 102.187 279.489 93.12C279.489 84.0533 283.542 76.2667 291.649 69.76C299.862 63.1467 308.395 59.84 317.249 59.84C322.795 59.84 326.529 61.12 328.449 63.68C329.622 64.96 330.209 66.3467 330.209 67.84C330.209 69.2267 329.835 70.72 329.089 72.32C328.342 73.8133 327.115 74.56 325.409 74.56C323.809 74.56 323.595 73.5467 324.769 71.52C325.942 69.3867 326.529 67.5733 326.529 66.08ZM367.136 55.2C365.963 54.24 365.483 52.8533 365.696 51.04C365.91 49.2267 366.87 47.3067 368.576 45.28C370.283 43.2533 372.576 42.24 375.456 42.24C376.31 42.24 377.216 42.6667 378.176 43.52C379.136 44.2667 379.51 45.6 379.296 47.52C379.083 49.3333 378.23 51.0933 376.736 52.8C375.243 54.4 373.536 55.4667 371.616 56C369.803 56.4267 368.31 56.16 367.136 55.2ZM365.056 63.68C360.683 68.16 357.003 73.8667 354.016 80.8C351.136 87.6267 349.696 92.4267 349.696 95.2C349.696 97.9733 350.763 99.36 352.896 99.36C355.136 99.36 358.763 97.76 363.776 94.56C368.896 91.36 374.71 86.8267 381.216 80.96C382.603 79.68 383.296 79.84 383.296 81.44C383.296 81.6533 383.19 81.8667 382.976 82.08C377.856 86.56 373.536 90.24 370.016 93.12C366.496 96 362.283 98.7733 357.376 101.44C352.576 104 348.63 105.28 345.536 105.28C341.696 105.28 338.816 104.427 336.896 102.72C335.083 101.013 334.176 99.1467 334.176 97.12C334.176 93.28 334.87 90.24 336.256 88C337.643 85.76 339.99 82.6667 343.296 78.72C342.123 79.68 340.256 81.28 337.696 83.52C335.243 85.76 333.536 87.2533 332.576 88C331.616 88.7467 331.136 88.5333 331.136 87.36C331.136 86.6133 331.99 85.5467 333.696 84.16C335.403 82.7733 339.083 79.2533 344.736 73.6C350.496 67.9467 354.39 64.5867 356.416 63.52C358.55 62.4533 360.256 61.92 361.536 61.92C362.923 61.92 363.936 62.1333 364.576 62.56C365.216 62.88 365.376 63.2533 365.056 63.68ZM407.05 49.12C409.397 45.6 411.263 42.8267 412.65 40.8C414.143 38.6667 415.317 37.12 416.17 36.16C417.023 35.2 418.943 34.4 421.93 33.76C424.917 33.0133 427.797 32.64 430.57 32.64C433.343 32.64 434.73 32.96 434.73 33.6C434.73 34.1333 432.437 36.5867 427.85 40.96C423.263 45.3333 417.93 51.1467 411.85 58.4C419.103 59.5733 423.85 61.8667 426.09 65.28C426.943 66.7733 427.05 67.7333 426.41 68.16C425.877 68.5867 425.237 68.4267 424.49 67.68C422.25 65.44 418.677 64.32 413.77 64.32C411.637 64.32 409.237 64.5333 406.57 64.96C397.93 76.0533 392.49 85.12 390.25 92.16C389.503 94.1867 389.13 95.8933 389.13 97.28C389.13 101.013 390.677 102.88 393.77 102.88C397.077 102.88 401.717 100.587 407.69 96C415.477 90.1333 422.25 84.32 428.01 78.56C429.077 77.3867 429.77 77.12 430.09 77.76C430.41 78.4 430.143 79.0933 429.29 79.84C420.117 89.44 412.383 96.5333 406.09 101.12C399.903 105.6 394.197 107.84 388.97 107.84C381.823 107.84 378.25 104.053 378.25 96.48C378.25 92.8533 379.263 88.5333 381.29 83.52L378.41 86.24C377.557 87.0933 376.97 87.36 376.65 87.04C376.223 86.6133 376.01 86.24 376.01 85.92C376.01 85.6 376.437 85.0667 377.29 84.32C385.077 77.4933 390.41 72.32 393.29 68.8C391.263 69.5467 389.877 69.6 389.13 68.96C388.49 68.32 388.01 67.4667 387.69 66.4C387.477 65.3333 388.01 64.0533 389.29 62.56C390.677 60.96 392.65 59.84 395.21 59.2C397.877 58.4533 399.85 58.0267 401.13 57.92C402.73 55.5733 404.703 52.64 407.05 49.12ZM450.785 68.16C452.065 66.7733 452.705 65.6 452.705 64.64C452.705 63.68 452.065 63.2 450.785 63.2C449.505 63.2 447.532 64.16 444.865 66.08C442.305 68 438.412 71.4133 433.185 76.32C427.958 81.2267 424.812 84.1067 423.745 84.96C422.785 85.7067 422.305 85.7067 422.305 84.96C422.198 84.2133 422.838 83.3067 424.225 82.24C425.612 81.0667 428.705 78.0267 433.505 73.12C438.305 68.2133 442.038 64.7467 444.705 62.72C447.372 60.6933 450.412 59.68 453.825 59.68C457.665 59.68 460.278 61.12 461.665 64C462.305 65.0667 462.625 66.4533 462.625 68.16C462.625 69.8667 462.198 71.7867 461.345 73.92C460.492 75.9467 459.478 77.8133 458.305 79.52C457.238 81.12 455.798 83.0933 453.985 85.44C452.278 87.7867 450.572 90.1333 448.865 92.48C447.265 94.8267 446.465 96.5333 446.465 97.6C446.465 98.6667 446.892 99.2 447.745 99.2C451.905 99.2 459.692 92.2667 471.105 78.4C476.545 71.8933 481.185 65.8133 485.025 60.16C488.438 52.2667 491.425 47.9467 493.985 47.2C494.945 46.88 496.118 46.72 497.505 46.72C498.892 46.72 499.905 47.3067 500.545 48.48C501.185 49.6533 501.505 50.56 501.505 51.2C501.505 51.84 501.025 52.3733 500.065 52.8C499.212 53.12 498.412 53.28 497.665 53.28C497.025 53.1733 496.598 53.12 496.385 53.12C493.292 53.12 490.678 55.36 488.545 59.84C487.265 62.6133 485.612 67.04 483.585 73.12C481.665 79.2 479.852 84.8 478.145 89.92C476.438 95.04 473.612 101.013 469.665 107.84C465.718 114.667 460.918 121.067 455.265 127.04C449.612 133.013 442.892 138.027 435.105 142.08C427.425 146.133 419.532 148.16 411.425 148.16C403.318 148.16 396.545 146.293 391.105 142.56C385.558 138.827 382.145 133.067 380.865 125.28C380.865 124.747 380.972 124.373 381.185 124.16C381.398 123.947 381.665 123.947 381.985 124.16C382.305 124.373 382.465 124.693 382.465 125.12C383.532 131.093 386.412 135.947 391.105 139.68C395.692 143.413 401.025 145.28 407.105 145.28C415.105 145.28 423.265 142.187 431.585 136C440.012 129.92 447.852 121.867 455.105 111.84C462.465 101.92 471.105 87.36 481.025 68.16C478.572 71.8933 475.638 75.9467 472.225 80.32C458.892 96.7467 448.652 104.96 441.505 104.96C436.065 104.96 433.345 102.4 433.345 97.28C433.345 95.4667 433.718 93.3333 434.465 90.88C435.958 86.6133 441.398 79.04 450.785 68.16Z" fill="#3768B0"/>
</svg>
